# xmcd CD database file
#
# Track frame offsets:
#	150
#	23862
#	41290
#
# Disc length: 907 seconds
#
# Revision: 0
# Processed by: cddbd v1.5.1PL0 Copyright (c) Steve Scherf et al.
# Submitted via: CDex 1.51
#
DISCID=18038903
DTITLE=ORIGINAL LOVE - R&R
DYEAR=2000
DGENRE=New Age
TTITLE0=R&R
TTITLE1=ダブルバーガー
TTITLE2=バベルの塔 または 火星での生活
EXTD=YEAR: 2000
EXTT0=
EXTT1=
EXTT2=
PLAYORDER=
